<svg width="16" height="16" viewBox="0 0 16 16" fill="none" xmlns="http://www.w3.org/2000/svg">
<g filter="url(#filter0_f_49_224)">
<path d="M7.32185 2.14181C7.37938 1.95279 7.64699 1.95279 7.70452 2.14181L8.8822 6.01107C8.90161 6.07485 8.95152 6.12476 9.01529 6.14417L12.8846 7.32185C13.0736 7.37938 13.0736 7.64699 12.8846 7.70452L9.01529 8.8822C8.95152 8.90161 8.90161 8.95152 8.8822 9.01529L7.70452 12.8846C7.64699 13.0736 7.37938 13.0736 7.32185 12.8846L6.14417 9.01529C6.12476 8.95152 6.07485 8.90161 6.01107 8.8822L2.14181 7.70452C1.95279 7.64699 1.95279 7.37938 2.14181 7.32185L6.01107 6.14417C6.07485 6.12476 6.12476 6.07485 6.14417 6.01107L7.32185 2.14181Z" fill="white"/>
</g>
<path d="M7.32185 2.14181C7.37938 1.95279 7.64699 1.95279 7.70452 2.14181L8.8822 6.01107C8.90161 6.07485 8.95152 6.12476 9.01529 6.14417L12.8846 7.32185C13.0736 7.37938 13.0736 7.64699 12.8846 7.70452L9.01529 8.8822C8.95152 8.90161 8.90161 8.95152 8.8822 9.01529L7.70452 12.8846C7.64699 13.0736 7.37938 13.0736 7.32185 12.8846L6.14417 9.01529C6.12476 8.95152 6.07485 8.90161 6.01107 8.8822L2.14181 7.70452C1.95279 7.64699 1.95279 7.37938 2.14181 7.32185L6.01107 6.14417C6.07485 6.12476 6.12476 6.07485 6.14417 6.01107L7.32185 2.14181Z" fill="url(#paint0_linear_49_224)"/>
<defs>
<filter id="filter0_f_49_224" x="0" y="0" width="15.0264" height="15.0264" filterUnits="userSpaceOnUse" color-interpolation-filters="sRGB">
<feFlood flood-opacity="0" result="BackgroundImageFix"/>
<feBlend mode="normal" in="SourceGraphic" in2="BackgroundImageFix" result="shape"/>
<feGaussianBlur stdDeviation="1" result="effect1_foregroundBlur_49_224"/>
</filter>
<linearGradient id="paint0_linear_49_224" x1="7.51318" y1="1.51318" x2="10.0132" y2="12.5132" gradientUnits="userSpaceOnUse">
<stop stop-color="white"/>
<stop offset="1" stop-color="#F8DFD3"/>
</linearGradient>
</defs>
</svg>
