<svg width="20" height="20" viewBox="0 0 20 20" fill="none" xmlns="http://www.w3.org/2000/svg">
<g filter="url(#filter0_f_49_352)">
<path d="M5.30012 5.98044C5.14553 5.68454 5.45356 5.36079 5.75678 5.50048L9.17221 7.07392C9.3065 7.13579 9.46518 7.10659 9.56866 7.00098L12.2004 4.31497C12.4341 4.07651 12.8372 4.26942 12.798 4.60097L12.357 8.33545C12.3397 8.48229 12.4165 8.62418 12.5489 8.68996L15.9167 10.3629C16.2157 10.5114 16.1568 10.9544 15.8294 11.0196L12.1414 11.7542C11.9964 11.7831 11.8852 11.9 11.8635 12.0462L11.3132 15.7662C11.2643 16.0964 10.8248 16.1773 10.6616 15.8861L8.82331 12.6056C8.75103 12.4766 8.6055 12.4069 8.45971 12.4316L4.75176 13.0577C4.42257 13.1133 4.20986 12.7203 4.43641 12.4751L6.98827 9.71301C7.0886 9.60441 7.10987 9.44447 7.04141 9.31342L5.30012 5.98044Z" fill="white"/>
</g>
<path d="M5.30012 5.98044C5.14553 5.68454 5.45356 5.36079 5.75678 5.50048L9.17221 7.07392C9.3065 7.13579 9.46518 7.10659 9.56866 7.00098L12.2004 4.31497C12.4341 4.07651 12.8372 4.26942 12.798 4.60097L12.357 8.33545C12.3397 8.48229 12.4165 8.62418 12.5489 8.68996L15.9167 10.3629C16.2157 10.5114 16.1568 10.9544 15.8294 11.0196L12.1414 11.7542C11.9964 11.7831 11.8852 11.9 11.8635 12.0462L11.3132 15.7662C11.2643 16.0964 10.8248 16.1773 10.6616 15.8861L8.82331 12.6056C8.75103 12.4766 8.6055 12.4069 8.45971 12.4316L4.75176 13.0577C4.42257 13.1133 4.20986 12.7203 4.43641 12.4751L6.98827 9.71301C7.0886 9.60441 7.10987 9.44447 7.04141 9.31342L5.30012 5.98044Z" fill="url(#paint0_linear_49_352)" fill-opacity="0.75"/>
<defs>
<filter id="filter0_f_49_352" x="2.34229" y="2.20874" width="15.769" height="15.8564" filterUnits="userSpaceOnUse" color-interpolation-filters="sRGB">
<feFlood flood-opacity="0" result="BackgroundImageFix"/>
<feBlend mode="normal" in="SourceGraphic" in2="BackgroundImageFix" result="shape"/>
<feGaussianBlur stdDeviation="1" result="effect1_foregroundBlur_49_352"/>
</filter>
<linearGradient id="paint0_linear_49_352" x1="4.82514" y1="5.07129" x2="16.133" y2="11.8043" gradientUnits="userSpaceOnUse">
<stop stop-color="white"/>
<stop offset="1" stop-color="#FDFCF8"/>
</linearGradient>
</defs>
</svg>
