<svg width="22" height="22" viewBox="0 0 22 22" fill="none" xmlns="http://www.w3.org/2000/svg">
<g filter="url(#filter0_f_49_361)">
<path d="M10.4993 2.2369C10.6071 1.92094 11.054 1.92094 11.1618 2.2369L13.0727 7.83718C13.1205 7.97711 13.251 8.07194 13.3988 8.07411L19.3155 8.1609C19.6493 8.1658 19.7874 8.5908 19.5202 8.79097L14.7845 12.3389C14.6662 12.4276 14.6164 12.581 14.66 12.7223L16.4058 18.3762C16.5043 18.6952 16.1428 18.9578 15.8698 18.7656L11.0321 15.3581C10.9112 15.2729 10.7499 15.2729 10.629 15.3581L5.79132 18.7656C5.51837 18.9579 5.15685 18.6952 5.25535 18.3762L7.00116 12.7223C7.04478 12.581 6.99492 12.4276 6.87659 12.3389L2.14092 8.79097C1.87373 8.5908 2.01182 8.1658 2.34564 8.1609L8.26231 8.07411C8.41015 8.07194 8.54068 7.97711 8.58843 7.83718L10.4993 2.2369Z" fill="white"/>
</g>
<path d="M10.4993 2.2369C10.6071 1.92094 11.054 1.92094 11.1618 2.2369L13.0727 7.83718C13.1205 7.97711 13.251 8.07194 13.3988 8.07411L19.3155 8.1609C19.6493 8.1658 19.7874 8.5908 19.5202 8.79097L14.7845 12.3389C14.6662 12.4276 14.6164 12.581 14.66 12.7223L16.4058 18.3762C16.5043 18.6952 16.1428 18.9578 15.8698 18.7656L11.0321 15.3581C10.9112 15.2729 10.7499 15.2729 10.629 15.3581L5.79132 18.7656C5.51837 18.9579 5.15685 18.6952 5.25535 18.3762L7.00116 12.7223C7.04478 12.581 6.99492 12.4276 6.87659 12.3389L2.14092 8.79097C1.87373 8.5908 2.01182 8.1658 2.34564 8.1609L8.26231 8.07411C8.41015 8.07194 8.54068 7.97711 8.58843 7.83718L10.4993 2.2369Z" fill="url(#paint0_linear_49_361)" fill-opacity="0.75"/>
<defs>
<filter id="filter0_f_49_361" x="0" y="0" width="21.6611" height="20.8311" filterUnits="userSpaceOnUse" color-interpolation-filters="sRGB">
<feFlood flood-opacity="0" result="BackgroundImageFix"/>
<feBlend mode="normal" in="SourceGraphic" in2="BackgroundImageFix" result="shape"/>
<feGaussianBlur stdDeviation="1" result="effect1_foregroundBlur_49_361"/>
</filter>
<linearGradient id="paint0_linear_49_361" x1="10.8306" y1="1.26611" x2="14.9972" y2="19.5994" gradientUnits="userSpaceOnUse">
<stop stop-color="white"/>
<stop offset="1" stop-color="#FDFCF8"/>
</linearGradient>
</defs>
</svg>
