<svg width="136" height="149" viewBox="0 0 136 149" fill="none" xmlns="http://www.w3.org/2000/svg">
<g filter="url(#filter0_f_49_121)">
<path d="M8.94224 139.032C9.66183 138.269 10.6489 137.312 11.411 136.597C11.6498 136.373 11.5705 136.528 11.7371 136.375C12.0627 136.076 12.3341 135.765 12.6589 135.472C12.7667 135.375 12.6991 135.563 12.8108 135.46C13.4224 134.895 13.9611 134.321 14.5667 133.735C17.5498 130.85 20.4432 127.974 23.4269 125.017C24.4107 124.042 25.6495 122.9 26.633 121.86C26.7477 121.738 26.6257 121.757 26.6437 121.73C26.9289 121.31 26.9172 121.533 27.1602 121.316C28.1244 120.454 29.14 119.439 29.9947 118.535C30.3582 118.151 29.8818 118.424 30.3145 118.104C30.3444 118.082 30.3052 118.232 30.4132 118.135C30.6579 117.915 31.0872 117.462 31.271 117.285C31.6254 116.945 31.6821 116.887 32.0097 116.557C32.4581 116.107 33.0172 115.598 33.4844 115.102C33.5839 114.995 33.3918 115.075 33.5454 114.901C33.6992 114.726 34.1364 114.295 34.2954 114.161C34.4546 114.027 34.437 114.135 34.473 114.119C34.7714 113.991 35.1522 113.367 35.2136 113.299C36.3365 112.064 37.4105 111.117 38.5116 110.005C39.3473 109.161 40.2188 108.236 41.0174 107.437C41.969 106.484 42.8029 105.704 43.7183 104.77C43.815 104.671 43.6346 104.719 43.7525 104.599C45.0056 103.318 46.2649 102.062 47.5653 100.84C47.6957 100.717 47.5919 100.94 47.7257 100.821C48.5439 100.092 49.8778 98.978 50.0808 98.2608C50.6124 97.7443 51.2559 97.1154 51.7739 96.6959C52.1078 96.4253 51.8793 96.7842 52.2217 96.3839C52.299 96.2937 52.1349 96.3471 52.255 96.216C52.761 95.6643 53.3542 95.102 53.8461 94.5476C53.946 94.4346 53.8671 94.4137 53.8882 94.3743C54.0675 94.0466 54.6078 93.7438 54.7081 93.6602C55.4703 93.0223 55.9537 92.4828 56.6045 91.829C56.7556 91.6774 56.5104 91.7897 56.6534 91.6414C57.3957 90.8728 58.1804 90.0923 58.9465 89.3791C59.1171 89.2206 59.0236 89.43 59.1081 89.3572C59.4796 89.0356 59.4482 88.8499 59.8025 88.5393C59.877 88.4737 59.8867 88.5625 59.9048 88.555C60.1883 88.4387 60.2419 88.144 60.2905 88.0896C60.9025 87.3993 61.4416 87.1065 62.05 86.4568C62.1227 86.379 61.8918 86.4873 62.0999 86.2722C63.4855 84.8393 64.986 83.3591 66.424 82.0074C66.6475 81.7972 66.54 81.9994 66.5593 81.9915C66.8703 81.858 66.8935 81.5929 66.9593 81.5173C67.4821 80.9241 68.1015 80.5017 68.3359 79.9773C70.7373 77.6534 72.998 75.21 75.4585 72.9846C75.4896 72.9562 75.4956 73.0692 75.5575 73.0122C76.3031 72.3265 76.0744 72.3723 76.4333 71.7837C76.5239 71.6355 77.0208 71.4072 77.0627 71.3849C77.2158 71.3042 77.183 71.5144 77.2291 71.4822C77.6074 71.2125 77.264 70.9735 77.6991 70.5341C77.7132 70.5208 77.7096 70.6323 77.7515 70.6008C77.8817 70.503 77.9729 70.3681 78.1024 70.2745C78.3993 70.0608 78.6311 70.1113 78.9371 69.6369C78.9756 69.5765 78.7355 69.4866 79.1319 69.1022C79.2901 68.9491 79.973 68.2541 80.1759 68.0709C80.3786 67.8879 80.3 68.0743 80.3159 68.0628C80.9035 67.6113 80.7365 67.8386 81.0997 67.6815C81.4625 67.5241 81.1434 67.3483 81.2214 67.214C81.2996 67.0795 81.7369 66.755 81.8503 66.6812C81.9636 66.6075 81.8812 66.7586 81.9754 66.6865C82.5992 66.2071 82.0937 66.32 82.2354 66.0979C82.5691 65.574 83.0847 65.4228 83.4933 65.0467C83.6038 64.9449 83.4758 64.99 83.566 64.8911C83.9237 64.5 84.2051 64.3312 84.5766 63.8506C84.6374 63.772 84.8699 63.3153 85.1727 63.1726C85.2158 63.1526 85.1723 63.2886 85.3413 63.1386C85.594 62.9146 86.0315 62.4931 86.2713 62.2203C86.4483 62.0189 86.1571 62.1611 86.4175 61.9454C86.5333 61.8496 86.3821 62.0909 86.596 61.9072C86.8088 61.7245 87.3102 61.2145 87.5002 61.0197C87.6898 60.8252 87.528 60.8734 87.5396 60.854C87.6111 60.7375 87.9504 60.3395 87.9829 60.3068C89.6114 58.6492 91.2159 57.2237 92.7763 55.5846C92.8988 55.4561 92.7553 55.4796 92.7734 55.4593C93.1759 55.0023 92.9989 55.5035 93.3513 55.2557C93.1859 55.1766 93.3844 55.0207 93.6723 54.7031C93.811 54.55 93.6846 54.5823 93.693 54.564C93.8364 54.2745 94.0792 54.2164 94.1368 54.1965C94.3493 54.1227 94.422 53.8832 94.5657 53.8321C94.7091 53.7808 94.5546 54.0751 94.8427 53.7825C94.88 53.6568 94.5511 53.7585 94.752 53.5184C95.5097 52.6125 97.1448 51.1429 97.8198 50.4804C98.4934 49.8193 98.6999 49.5946 99.1028 49.2198C99.8306 48.5428 99.4895 48.7162 99.8849 48.239C100.281 47.7605 100.279 48.1838 100.386 48.1657C100.492 48.1487 100.513 48.0346 100.614 47.9822C100.715 47.9301 100.581 48.1272 100.769 47.9557C100.958 47.784 101.368 47.2092 101.385 47.0979C101.42 46.8625 101.094 46.9807 101.605 46.5387C101.635 46.5134 101.601 46.6578 101.711 46.558C102.583 45.763 103.448 44.8956 104.314 44.0967C104.433 43.987 104.392 44.1511 104.462 44.0879C105.192 43.43 104.842 43.5758 105.106 43.0789C105.174 43.3175 105.476 43.1998 106.001 42.6716C106.317 42.3541 106.196 42.3421 106.353 42.0893C106.4 42.0134 106.669 41.8342 106.678 41.762C106.709 41.5249 106.385 41.622 106.971 41.1223C106.996 41.1005 106.977 41.2329 107.062 41.1536C107.614 40.6413 107.571 40.47 108.13 39.8792C108.569 39.4161 109.432 38.676 109.954 38.1709C110.114 38.3537 110.557 37.8272 110.635 37.5111C110.972 37.1813 111.323 36.8131 111.66 36.506C111.776 36.4002 111.753 36.5231 111.772 36.5145C112.069 36.3835 112.099 36.1227 112.166 36.046C112.898 35.2191 113.617 34.6685 114.272 33.8359C114.295 33.8063 114.219 33.644 114.504 33.5314C114.523 33.5244 114.332 33.8256 114.685 33.4783C115.037 33.1309 115.757 32.5322 116.186 31.9888C116.29 31.8574 116.489 31.4617 116.802 31.2977C116.844 31.276 116.844 31.3452 116.908 31.3181C117.116 31.2298 117.077 31.0277 117.352 30.955C117.628 30.8823 118.066 30.5947 118.483 30.0318C118.496 30.014 118.517 29.8019 118.671 29.6486C118.919 29.404 119.286 29.0732 119.541 28.8145C119.663 28.6907 119.526 28.7103 119.546 28.6878C120.336 27.8239 120.974 27.2857 121.879 26.4188C122.045 26.26 122.428 25.7103 122.805 25.4585C123.218 25.1819 123.156 25.8297 123.876 24.9633C124.167 24.614 124.202 23.8371 124.965 23.4511C126.028 22.2832 127.152 21.3451 128.198 20.1538C128.245 20.1003 128.3 19.8373 128.42 19.7199C128.597 19.5459 128.741 19.4973 128.868 19.3746C129.406 18.8615 129.843 18.3374 130.353 17.8352C130.547 17.6444 130.53 17.7618 130.761 17.5342C130.992 17.3067 131.078 17.0876 131.419 16.8073C131.676 16.5959 132.044 16.4946 132.369 16.1976C132.249 16.0532 132.464 15.8411 132.808 15.4244C132.874 15.3443 132.75 15.3768 132.779 15.3365C132.895 15.1715 133.063 15.079 133.17 14.919C133.196 14.8801 133.152 14.8334 133.171 14.7991C133.33 14.5056 133.801 14.2336 133.882 14.1872C134.193 14.0084 134.248 13.8347 134.462 13.6725C134.675 13.5106 134.429 13.8254 134.663 13.6214C135.148 13.1986 135.721 12.6052 136.182 12.144C136.366 11.9597 136.181 12.0254 136.206 11.9977C136.569 11.6002 137.016 11.2779 137.106 10.9457C137.679 10.9917 137.305 10.6851 137.908 10.201C137.956 10.163 138.156 10.2553 138.014 10.4421C137.872 10.6289 137.578 10.8335 137.384 11.0963C137.338 11.1585 137.167 11.6073 137.134 11.658C136.869 12.0556 136.604 11.8829 136.574 11.8885C136.247 11.9576 136.019 12.4861 135.93 12.5964C135.523 13.1011 135.107 13.4591 134.761 13.8756C134.534 14.1477 134.653 14.3161 134.454 14.5084C133.792 15.1475 133.366 15.1748 132.929 15.9649C132.835 16.1341 133.122 16.1602 132.53 16.5098C132.493 16.5317 132.032 16.7699 131.902 17.0445C131.886 17.079 131.932 17.1241 131.903 17.1615C131.704 17.4118 131.519 17.5256 131.293 17.7885C131.067 18.0515 130.801 18.3727 130.508 18.6374C130.331 18.7971 130.031 18.9283 129.93 18.9883C129.644 19.1563 129.5 19.4999 129.287 19.5684C129.073 19.6377 129.238 19.2475 128.82 19.5741C128.925 19.7071 129.016 19.8612 129.113 20.0033C128.296 20.8188 127.459 21.5867 126.65 22.4143C126.549 22.5171 126.716 22.4768 126.611 22.5886C126.164 23.0599 125.719 23.4171 125.264 23.9135C124.911 24.2979 124.576 24.7717 124.21 25.1758C123.84 25.276 123.317 25.8966 122.891 26.3014C122.742 26.4433 122.715 26.3971 122.601 26.4891C122.168 26.8374 122.47 26.7741 122.383 26.9005C122.006 27.4427 121.696 27.2095 121.164 27.76C121.135 27.7891 120.931 28.2866 120.892 28.3441C120.645 28.7113 120.791 28.3446 120.589 28.5267C120.221 28.8592 119.944 29.0692 119.577 29.525C119.47 29.658 119.274 30.0376 118.972 30.2015C118.933 30.2231 118.902 30.1581 118.874 30.18C118.383 30.5816 118.522 30.7443 118.319 31.0517C118.116 31.3591 117.62 31.6507 117.51 31.7012C117.224 31.8343 117.637 31.5065 117.641 31.4875C117.683 31.2627 117.413 31.567 117.187 31.7799C117.008 31.6639 116.711 31.9812 116.953 32.0013C116.98 32.0029 117.136 31.8175 117.187 31.7799C117.14 32.1188 116.822 32.4764 116.316 32.7151C116.079 32.8268 116.169 32.587 115.669 33.1465C115.442 33.4005 115.636 33.4089 115.452 33.65C115.032 34.2006 114.31 34.7386 113.828 35.2558C113.653 35.4436 113.884 35.3218 113.766 35.452C113.454 35.7978 113.123 36.0475 112.816 36.401C112.788 36.4331 112.919 36.418 112.817 36.522C112.048 37.3115 111.336 37.9557 110.525 38.772C110.133 39.1664 109.466 39.9046 109.054 40.3072C108.341 41.0053 107.392 41.7926 106.812 42.4189C106.434 42.8272 106.578 42.7989 106.45 43.008C106.203 43.4118 105.493 43.8518 105.394 43.9082C105.391 43.9099 105.714 43.5562 105.505 43.7076C105.338 43.7506 105.398 43.9041 105.394 43.9082C105.33 43.9455 104.644 44.6113 104.522 44.7573C104.455 44.8367 104.551 44.851 104.515 44.8914C103.665 45.8489 102.777 46.7725 101.839 47.6676C101.822 47.6827 101.785 47.5964 101.745 47.6327C101.189 48.1383 100.927 48.5554 100.536 49.0401C100.145 49.5246 99.7843 49.8583 99.4206 50.0123C99.1053 50.3574 98.587 50.7863 98.2872 51.0317C97.9875 51.2771 98.0696 51.4357 98.0481 51.4622C97.3794 52.29 96.8802 52.6555 96.097 53.4246C95.7244 53.7899 95.0132 54.5428 94.6287 54.9573C94.3249 55.2852 94.1075 55.448 93.8358 55.7584C93.799 55.8004 93.8921 55.814 93.8822 55.8282C93.6229 56.2186 93.6476 55.9307 93.5575 55.9746C93.2308 56.1336 93.0361 56.2391 92.6621 56.6969C92.5758 56.8025 92.4858 57.2719 92.3227 57.4586C92.1104 57.701 92.1284 57.5471 91.9078 57.8027C91.8889 57.8245 91.9347 57.8619 91.7867 58.0077C91.1 58.6847 90.3358 59.4073 89.6346 60.1234C89.5387 60.221 89.7281 60.1626 89.5906 60.3048C88.9453 60.9719 88.2269 61.692 87.5597 62.3033C87.3952 62.4535 87.4472 62.308 87.3995 62.3286C87.1078 62.4559 86.9323 62.8758 86.8858 62.9274C85.7786 64.1615 84.7778 64.952 83.6422 66.2027C83.5806 66.271 83.2123 66.903 82.8795 67.0157C82.8569 67.0236 82.5238 67.1314 82.4072 67.4053C82.4 67.4223 82.5952 67.3428 82.3504 67.5779C82.1057 67.813 81.7603 68.2401 81.3678 68.507C81.2437 68.5916 80.8849 68.726 80.6651 69.1294C80.6511 69.1561 80.3764 69.8439 80.0649 69.8751C80.0141 69.8798 79.8942 69.7011 79.6005 70.1512C79.5446 70.2374 79.7061 70.1412 79.5406 70.35C79.2872 70.6701 78.8692 71.0117 78.5847 71.4324C78.5353 71.5059 78.3759 71.8702 78.0903 72.0041C78.0456 72.025 78.058 71.9124 77.9421 72.0181C77.3908 72.5208 76.8748 73.1086 76.3077 73.6117C76.107 73.79 76.1231 73.612 75.9049 73.7888C75.6866 73.9658 75.2697 74.3449 75.1006 74.5895C74.9315 74.8342 75.2844 74.7358 74.9863 75.0573C73.6901 76.4551 72.2869 77.7201 70.9372 79.0602C70.737 79.259 70.9474 79.1389 70.6557 79.4351C69.5804 80.5273 67.7608 82.4502 66.7274 83.2972C65.8994 83.9759 66.7839 82.9636 66.179 83.5102C65.8873 83.7742 65.737 84.2257 65.6749 84.2977C65.0703 85.0038 64.5511 85.3951 63.9843 86.0079C63.8673 86.1344 64.0465 86.075 63.9462 86.1821C63.6043 86.5483 63.207 86.895 62.8752 87.2398C62.7265 87.3947 62.8004 87.4128 62.6578 87.5496C62.3172 87.8773 62.0037 88.1547 61.6363 88.4386C61.6028 88.4645 61.7447 88.2057 61.4965 88.452C61.0949 88.8507 60.558 89.3069 60.1437 89.8135C60.021 89.964 60.121 90.0752 59.756 90.2971C59.6795 90.3437 59.6312 90.1378 59.4001 90.5911C59.361 90.6672 58.9365 91.3924 58.5608 91.5802C58.4618 91.6298 58.1693 91.7166 58.0221 91.898C58.0025 91.923 58.1479 91.8901 58.0179 92.0324C57.5589 92.5329 57.0525 93.0319 56.5797 93.5448C56.4535 93.6819 56.7072 93.5437 56.5173 93.7461C55.9952 94.3029 55.31 94.9644 54.7667 95.4759C54.5662 95.6644 54.6515 95.4806 54.6322 95.4896C54.3198 95.632 54.3018 95.8835 54.2334 95.9661C53.8063 96.4786 53.3959 96.7832 52.9794 97.2326C52.8643 97.3565 53.0039 97.3269 52.9851 97.3557C52.7877 97.6518 52.8714 97.3676 52.7051 97.5135C52.2387 97.9218 51.7579 98.4161 51.3247 98.8675C51.1656 99.0334 51.4114 98.9143 51.268 99.0624C50.42 99.9405 49.5209 100.836 48.6473 101.646C48.4827 101.799 48.5327 101.649 48.4885 101.671C48.183 101.821 47.9582 102.264 47.8919 102.351C47.591 102.749 47.4124 102.842 47.1135 103.16C45.6542 104.714 43.7734 106.554 42.3398 107.965C40.4719 109.804 38.9934 111.202 37.2462 112.99C37.1351 113.104 37.3135 113.056 37.2186 113.154C35.9899 114.426 34.7391 115.637 33.5111 116.915C33.4103 117.019 33.62 116.933 33.4601 117.103C33.1327 117.453 32.7026 117.88 32.3421 118.204C32.1664 118.362 32.3359 118.083 32.1601 118.244C31.7507 118.617 31.3289 119.033 30.9389 119.447C30.7731 119.623 31.0935 119.428 30.873 119.652C29.3724 121.179 27.9033 122.684 26.2981 124.138C26.188 124.238 25.9671 124.201 25.7699 124.45C25.7891 124.502 25.8322 124.544 25.8633 124.59C23.6902 126.825 21.474 128.971 19.2672 131.185C19.1741 131.278 19.4029 131.185 19.2232 131.366C18.1828 132.414 17.1926 133.452 16.0613 134.456C15.9492 134.556 15.8828 134.38 15.5902 134.712C15.5387 134.771 15.0866 135.26 14.9917 135.408C14.9792 135.429 15.1209 135.399 14.9716 135.553C14.1035 136.446 13.1719 137.361 12.2623 138.21C12.1154 138.346 12.2059 138.134 12.1008 138.231C11.3553 138.92 10.6247 139.749 9.88836 140.383C9.39529 140.806 9.46071 140.532 9.11621 140.674C9.06752 140.695 8.7826 140.978 8.70867 140.933C8.522 140.821 8.49559 140.519 8.28043 140.416C8.23432 140.393 7.89266 140.812 8.03403 140.503C8.04415 140.482 8.29112 140.177 8.33065 140.081C8.3583 140.014 8.21318 140.039 8.28436 139.917C8.35555 139.795 8.51162 139.739 8.64161 139.549C8.77118 139.359 8.63258 139.361 8.94224 139.032ZM96.9386 52.1374C96.6297 52.3331 96.8037 52.5825 97.0249 52.2575C97.0354 52.2415 96.9543 52.1272 96.9386 52.1374ZM127.304 21.4222C126.883 21.6603 126.795 22.0246 127.099 21.8629C127.402 21.7012 127.433 21.3496 127.304 21.4222ZM130.643 17.9162C130.185 18.23 130.424 18.5915 130.775 18.1158C130.795 18.0882 130.669 17.8979 130.643 17.9162ZM10.212 139.51C10.2057 139.511 9.99983 139.713 9.99775 139.721C9.95659 139.897 10.3683 139.493 10.212 139.51ZM133.949 14.4306C133.788 14.5109 133.49 14.906 133.689 14.8063C133.85 14.726 134.148 14.3305 133.949 14.4306ZM83.6068 65.1395C83.5997 65.1403 83.4512 65.2845 83.4719 65.2994C83.5391 65.3469 83.7257 65.1261 83.6068 65.1395ZM139.69 8.62907C138.83 9.47436 138.068 9.74555 139.02 8.84067C139.193 8.67681 138.738 9.28392 138.974 9.09129C139.404 8.73862 139.508 8.32154 139.989 8.00355C140.076 7.94614 139.739 8.5814 139.689 8.63093C139.689 8.6303 139.689 8.62969 139.69 8.62907ZM96.5404 52.0289C96.5326 52.0311 96.3282 52.232 96.3262 52.2397C96.284 52.4172 96.6956 52.0126 96.5404 52.0289ZM74.9767 73.5871C74.9596 73.5924 74.4861 74.0591 74.4763 74.08C74.3417 74.4364 75.2994 73.4931 74.9767 73.5871ZM109.966 38.1674C110.119 37.8777 110.374 37.604 110.634 37.512C110.411 37.7282 110.19 37.9497 109.966 38.1674Z" fill="white"/>
</g>
<path d="M8.94224 139.032C9.66183 138.269 10.6489 137.312 11.411 136.597C11.6498 136.373 11.5705 136.528 11.7371 136.375C12.0627 136.076 12.3341 135.765 12.6589 135.472C12.7667 135.375 12.6991 135.563 12.8108 135.46C13.4224 134.895 13.9611 134.321 14.5667 133.735C17.5498 130.85 20.4432 127.974 23.4269 125.017C24.4107 124.042 25.6495 122.9 26.633 121.86C26.7477 121.738 26.6257 121.757 26.6437 121.73C26.9289 121.31 26.9172 121.533 27.1602 121.316C28.1244 120.454 29.14 119.439 29.9947 118.535C30.3582 118.151 29.8818 118.424 30.3145 118.104C30.3444 118.082 30.3052 118.232 30.4132 118.135C30.6579 117.915 31.0872 117.462 31.271 117.285C31.6254 116.945 31.6821 116.887 32.0097 116.557C32.4581 116.107 33.0172 115.598 33.4844 115.102C33.5839 114.995 33.3918 115.075 33.5454 114.901C33.6992 114.726 34.1364 114.295 34.2954 114.161C34.4546 114.027 34.437 114.135 34.473 114.119C34.7714 113.991 35.1522 113.367 35.2136 113.299C36.3365 112.064 37.4105 111.117 38.5116 110.005C39.3473 109.161 40.2188 108.236 41.0174 107.437C41.969 106.484 42.8029 105.704 43.7183 104.77C43.815 104.671 43.6346 104.719 43.7525 104.599C45.0056 103.318 46.2649 102.062 47.5653 100.84C47.6957 100.717 47.5919 100.94 47.7257 100.821C48.5439 100.092 49.8778 98.978 50.0808 98.2608C50.6124 97.7443 51.2559 97.1154 51.7739 96.6959C52.1078 96.4253 51.8793 96.7842 52.2217 96.3839C52.299 96.2937 52.1349 96.3471 52.255 96.216C52.761 95.6643 53.3542 95.102 53.8461 94.5476C53.946 94.4346 53.8671 94.4137 53.8882 94.3743C54.0675 94.0466 54.6078 93.7438 54.7081 93.6602C55.4703 93.0223 55.9537 92.4828 56.6045 91.829C56.7556 91.6774 56.5104 91.7897 56.6534 91.6414C57.3957 90.8728 58.1804 90.0923 58.9465 89.3791C59.1171 89.2206 59.0236 89.43 59.1081 89.3572C59.4796 89.0356 59.4482 88.8499 59.8025 88.5393C59.877 88.4737 59.8867 88.5625 59.9048 88.555C60.1883 88.4387 60.2419 88.144 60.2905 88.0896C60.9025 87.3993 61.4416 87.1065 62.05 86.4568C62.1227 86.379 61.8918 86.4873 62.0999 86.2722C63.4855 84.8393 64.986 83.3591 66.424 82.0074C66.6475 81.7972 66.54 81.9994 66.5593 81.9915C66.8703 81.858 66.8935 81.5929 66.9593 81.5173C67.4821 80.9241 68.1015 80.5017 68.3359 79.9773C70.7373 77.6534 72.998 75.21 75.4585 72.9846C75.4896 72.9562 75.4956 73.0692 75.5575 73.0122C76.3031 72.3265 76.0744 72.3723 76.4333 71.7837C76.5239 71.6355 77.0208 71.4072 77.0627 71.3849C77.2158 71.3042 77.183 71.5144 77.2291 71.4822C77.6074 71.2125 77.264 70.9735 77.6991 70.5341C77.7132 70.5208 77.7096 70.6323 77.7515 70.6008C77.8817 70.503 77.9729 70.3681 78.1024 70.2745C78.3993 70.0608 78.6311 70.1113 78.9371 69.6369C78.9756 69.5765 78.7355 69.4866 79.1319 69.1022C79.2901 68.9491 79.973 68.2541 80.1759 68.0709C80.3786 67.8879 80.3 68.0743 80.3159 68.0628C80.9035 67.6113 80.7365 67.8386 81.0997 67.6815C81.4625 67.5241 81.1434 67.3483 81.2214 67.214C81.2996 67.0795 81.7369 66.755 81.8503 66.6812C81.9636 66.6075 81.8812 66.7586 81.9754 66.6865C82.5992 66.2071 82.0937 66.32 82.2354 66.0979C82.5691 65.574 83.0847 65.4228 83.4933 65.0467C83.6038 64.9449 83.4758 64.99 83.566 64.8911C83.9237 64.5 84.2051 64.3312 84.5766 63.8506C84.6374 63.772 84.8699 63.3153 85.1727 63.1726C85.2158 63.1526 85.1723 63.2886 85.3413 63.1386C85.594 62.9146 86.0315 62.4931 86.2713 62.2203C86.4483 62.0189 86.1571 62.1611 86.4175 61.9454C86.5333 61.8496 86.3821 62.0909 86.596 61.9072C86.8088 61.7245 87.3102 61.2145 87.5002 61.0197C87.6898 60.8252 87.528 60.8734 87.5396 60.854C87.6111 60.7375 87.9504 60.3395 87.9829 60.3068C89.6114 58.6492 91.2159 57.2237 92.7763 55.5846C92.8988 55.4561 92.7553 55.4796 92.7734 55.4593C93.1759 55.0023 92.9989 55.5035 93.3513 55.2557C93.1859 55.1766 93.3844 55.0207 93.6723 54.7031C93.811 54.55 93.6846 54.5823 93.693 54.564C93.8364 54.2745 94.0792 54.2164 94.1368 54.1965C94.3493 54.1227 94.422 53.8832 94.5657 53.8321C94.7091 53.7808 94.5546 54.0751 94.8427 53.7825C94.88 53.6568 94.5511 53.7585 94.752 53.5184C95.5097 52.6125 97.1448 51.1429 97.8198 50.4804C98.4934 49.8193 98.6999 49.5946 99.1028 49.2198C99.8306 48.5428 99.4895 48.7162 99.8849 48.239C100.281 47.7605 100.279 48.1838 100.386 48.1657C100.492 48.1487 100.513 48.0346 100.614 47.9822C100.715 47.9301 100.581 48.1272 100.769 47.9557C100.958 47.784 101.368 47.2092 101.385 47.0979C101.42 46.8625 101.094 46.9807 101.605 46.5387C101.635 46.5134 101.601 46.6578 101.711 46.558C102.583 45.763 103.448 44.8956 104.314 44.0967C104.433 43.987 104.392 44.1511 104.462 44.0879C105.192 43.43 104.842 43.5758 105.106 43.0789C105.174 43.3175 105.476 43.1998 106.001 42.6716C106.317 42.3541 106.196 42.3421 106.353 42.0893C106.4 42.0134 106.669 41.8342 106.678 41.762C106.709 41.5249 106.385 41.622 106.971 41.1223C106.996 41.1005 106.977 41.2329 107.062 41.1536C107.614 40.6413 107.571 40.47 108.13 39.8792C108.569 39.4161 109.432 38.676 109.954 38.1709C110.114 38.3537 110.557 37.8272 110.635 37.5111C110.972 37.1813 111.323 36.8131 111.66 36.506C111.776 36.4002 111.753 36.5231 111.772 36.5145C112.069 36.3835 112.099 36.1227 112.166 36.046C112.898 35.2191 113.617 34.6685 114.272 33.8359C114.295 33.8063 114.219 33.644 114.504 33.5314C114.523 33.5244 114.332 33.8256 114.685 33.4783C115.037 33.1309 115.757 32.5322 116.186 31.9888C116.29 31.8574 116.489 31.4617 116.802 31.2977C116.844 31.276 116.844 31.3452 116.908 31.3181C117.116 31.2298 117.077 31.0277 117.352 30.955C117.628 30.8823 118.066 30.5947 118.483 30.0318C118.496 30.014 118.517 29.8019 118.671 29.6486C118.919 29.404 119.286 29.0732 119.541 28.8145C119.663 28.6907 119.526 28.7103 119.546 28.6878C120.336 27.8239 120.974 27.2857 121.879 26.4188C122.045 26.26 122.428 25.7103 122.805 25.4585C123.218 25.1819 123.156 25.8297 123.876 24.9633C124.167 24.614 124.202 23.8371 124.965 23.4511C126.028 22.2832 127.152 21.3451 128.198 20.1538C128.245 20.1003 128.3 19.8373 128.42 19.7199C128.597 19.5459 128.741 19.4973 128.868 19.3746C129.406 18.8615 129.843 18.3374 130.353 17.8352C130.547 17.6444 130.53 17.7618 130.761 17.5342C130.992 17.3067 131.078 17.0876 131.419 16.8073C131.676 16.5959 132.044 16.4946 132.369 16.1976C132.249 16.0532 132.464 15.8411 132.808 15.4244C132.874 15.3443 132.75 15.3768 132.779 15.3365C132.895 15.1715 133.063 15.079 133.17 14.919C133.196 14.8801 133.152 14.8334 133.171 14.7991C133.33 14.5056 133.801 14.2336 133.882 14.1872C134.193 14.0084 134.248 13.8347 134.462 13.6725C134.675 13.5106 134.429 13.8254 134.663 13.6214C135.148 13.1986 135.721 12.6052 136.182 12.144C136.366 11.9597 136.181 12.0254 136.206 11.9977C136.569 11.6002 137.016 11.2779 137.106 10.9457C137.679 10.9917 137.305 10.6851 137.908 10.201C137.956 10.163 138.156 10.2553 138.014 10.4421C137.872 10.6289 137.578 10.8335 137.384 11.0963C137.338 11.1585 137.167 11.6073 137.134 11.658C136.869 12.0556 136.604 11.8829 136.574 11.8885C136.247 11.9576 136.019 12.4861 135.93 12.5964C135.523 13.1011 135.107 13.4591 134.761 13.8756C134.534 14.1477 134.653 14.3161 134.454 14.5084C133.792 15.1475 133.366 15.1748 132.929 15.9649C132.835 16.1341 133.122 16.1602 132.53 16.5098C132.493 16.5317 132.032 16.7699 131.902 17.0445C131.886 17.079 131.932 17.1241 131.903 17.1615C131.704 17.4118 131.519 17.5256 131.293 17.7885C131.067 18.0515 130.801 18.3727 130.508 18.6374C130.331 18.7971 130.031 18.9283 129.93 18.9883C129.644 19.1563 129.5 19.4999 129.287 19.5684C129.073 19.6377 129.238 19.2475 128.82 19.5741C128.925 19.7071 129.016 19.8612 129.113 20.0033C128.296 20.8188 127.459 21.5867 126.65 22.4143C126.549 22.5171 126.716 22.4768 126.611 22.5886C126.164 23.0599 125.719 23.4171 125.264 23.9135C124.911 24.2979 124.576 24.7717 124.21 25.1758C123.84 25.276 123.317 25.8966 122.891 26.3014C122.742 26.4433 122.715 26.3971 122.601 26.4891C122.168 26.8374 122.47 26.7741 122.383 26.9005C122.006 27.4427 121.696 27.2095 121.164 27.76C121.135 27.7891 120.931 28.2866 120.892 28.3441C120.645 28.7113 120.791 28.3446 120.589 28.5267C120.221 28.8592 119.944 29.0692 119.577 29.525C119.47 29.658 119.274 30.0376 118.972 30.2015C118.933 30.2231 118.902 30.1581 118.874 30.18C118.383 30.5816 118.522 30.7443 118.319 31.0517C118.116 31.3591 117.62 31.6507 117.51 31.7012C117.224 31.8343 117.637 31.5065 117.641 31.4875C117.683 31.2627 117.413 31.567 117.187 31.7799C117.008 31.6639 116.711 31.9812 116.953 32.0013C116.98 32.0029 117.136 31.8175 117.187 31.7799C117.14 32.1188 116.822 32.4764 116.316 32.7151C116.079 32.8268 116.169 32.587 115.669 33.1465C115.442 33.4005 115.636 33.4089 115.452 33.65C115.032 34.2006 114.31 34.7386 113.828 35.2558C113.653 35.4436 113.884 35.3218 113.766 35.452C113.454 35.7978 113.123 36.0475 112.816 36.401C112.788 36.4331 112.919 36.418 112.817 36.522C112.048 37.3115 111.336 37.9557 110.525 38.772C110.133 39.1664 109.466 39.9046 109.054 40.3072C108.341 41.0053 107.392 41.7926 106.812 42.4189C106.434 42.8272 106.578 42.7989 106.45 43.008C106.203 43.4118 105.493 43.8518 105.394 43.9082C105.391 43.9099 105.714 43.5562 105.505 43.7076C105.338 43.7506 105.398 43.9041 105.394 43.9082C105.33 43.9455 104.644 44.6113 104.522 44.7573C104.455 44.8367 104.551 44.851 104.515 44.8914C103.665 45.8489 102.777 46.7725 101.839 47.6676C101.822 47.6827 101.785 47.5964 101.745 47.6327C101.189 48.1383 100.927 48.5554 100.536 49.0401C100.145 49.5246 99.7843 49.8583 99.4206 50.0123C99.1053 50.3574 98.587 50.7863 98.2872 51.0317C97.9875 51.2771 98.0696 51.4357 98.0481 51.4622C97.3794 52.29 96.8802 52.6555 96.097 53.4246C95.7244 53.7899 95.0132 54.5428 94.6287 54.9573C94.3249 55.2852 94.1075 55.448 93.8358 55.7584C93.799 55.8004 93.8921 55.814 93.8822 55.8282C93.6229 56.2186 93.6476 55.9307 93.5575 55.9746C93.2308 56.1336 93.0361 56.2391 92.6621 56.6969C92.5758 56.8025 92.4858 57.2719 92.3227 57.4586C92.1104 57.701 92.1284 57.5471 91.9078 57.8027C91.8889 57.8245 91.9347 57.8619 91.7867 58.0077C91.1 58.6847 90.3358 59.4073 89.6346 60.1234C89.5387 60.221 89.7281 60.1626 89.5906 60.3048C88.9453 60.9719 88.2269 61.692 87.5597 62.3033C87.3952 62.4535 87.4472 62.308 87.3995 62.3286C87.1078 62.4559 86.9323 62.8758 86.8858 62.9274C85.7786 64.1615 84.7778 64.952 83.6422 66.2027C83.5806 66.271 83.2123 66.903 82.8795 67.0157C82.8569 67.0236 82.5238 67.1314 82.4072 67.4053C82.4 67.4223 82.5952 67.3428 82.3504 67.5779C82.1057 67.813 81.7603 68.2401 81.3678 68.507C81.2437 68.5916 80.8849 68.726 80.6651 69.1294C80.6511 69.1561 80.3764 69.8439 80.0649 69.8751C80.0141 69.8798 79.8942 69.7011 79.6005 70.1512C79.5446 70.2374 79.7061 70.1412 79.5406 70.35C79.2872 70.6701 78.8692 71.0117 78.5847 71.4324C78.5353 71.5059 78.3759 71.8702 78.0903 72.0041C78.0456 72.025 78.058 71.9124 77.9421 72.0181C77.3908 72.5208 76.8748 73.1086 76.3077 73.6117C76.107 73.79 76.1231 73.612 75.9049 73.7888C75.6866 73.9658 75.2697 74.3449 75.1006 74.5895C74.9315 74.8342 75.2844 74.7358 74.9863 75.0573C73.6901 76.4551 72.2869 77.7201 70.9372 79.0602C70.737 79.259 70.9474 79.1389 70.6557 79.4351C69.5804 80.5273 67.7608 82.4502 66.7274 83.2972C65.8994 83.9759 66.7839 82.9636 66.179 83.5102C65.8873 83.7742 65.737 84.2257 65.6749 84.2977C65.0703 85.0038 64.5511 85.3951 63.9843 86.0079C63.8673 86.1344 64.0465 86.075 63.9462 86.1821C63.6043 86.5483 63.207 86.895 62.8752 87.2398C62.7265 87.3947 62.8004 87.4128 62.6578 87.5496C62.3172 87.8773 62.0037 88.1547 61.6363 88.4386C61.6028 88.4645 61.7447 88.2057 61.4965 88.452C61.0949 88.8507 60.558 89.3069 60.1437 89.8135C60.021 89.964 60.121 90.0752 59.756 90.2971C59.6795 90.3437 59.6312 90.1378 59.4001 90.5911C59.361 90.6672 58.9365 91.3924 58.5608 91.5802C58.4618 91.6298 58.1693 91.7166 58.0221 91.898C58.0025 91.923 58.1479 91.8901 58.0179 92.0324C57.5589 92.5329 57.0525 93.0319 56.5797 93.5448C56.4535 93.6819 56.7072 93.5437 56.5173 93.7461C55.9952 94.3029 55.31 94.9644 54.7667 95.4759C54.5662 95.6644 54.6515 95.4806 54.6322 95.4896C54.3198 95.632 54.3018 95.8835 54.2334 95.9661C53.8063 96.4786 53.3959 96.7832 52.9794 97.2326C52.8643 97.3565 53.0039 97.3269 52.9851 97.3557C52.7877 97.6518 52.8714 97.3676 52.7051 97.5135C52.2387 97.9218 51.7579 98.4161 51.3247 98.8675C51.1656 99.0334 51.4114 98.9143 51.268 99.0624C50.42 99.9405 49.5209 100.836 48.6473 101.646C48.4827 101.799 48.5327 101.649 48.4885 101.671C48.183 101.821 47.9582 102.264 47.8919 102.351C47.591 102.749 47.4124 102.842 47.1135 103.16C45.6542 104.714 43.7734 106.554 42.3398 107.965C40.4719 109.804 38.9934 111.202 37.2462 112.99C37.1351 113.104 37.3135 113.056 37.2186 113.154C35.9899 114.426 34.7391 115.637 33.5111 116.915C33.4103 117.019 33.62 116.933 33.4601 117.103C33.1327 117.453 32.7026 117.88 32.3421 118.204C32.1664 118.362 32.3359 118.083 32.1601 118.244C31.7507 118.617 31.3289 119.033 30.9389 119.447C30.7731 119.623 31.0935 119.428 30.873 119.652C29.3724 121.179 27.9033 122.684 26.2981 124.138C26.188 124.238 25.9671 124.201 25.7699 124.45C25.7891 124.502 25.8322 124.544 25.8633 124.59C23.6902 126.825 21.474 128.971 19.2672 131.185C19.1741 131.278 19.4029 131.185 19.2232 131.366C18.1828 132.414 17.1926 133.452 16.0613 134.456C15.9492 134.556 15.8828 134.38 15.5902 134.712C15.5387 134.771 15.0866 135.26 14.9917 135.408C14.9792 135.429 15.1209 135.399 14.9716 135.553C14.1035 136.446 13.1719 137.361 12.2623 138.21C12.1154 138.346 12.2059 138.134 12.1008 138.231C11.3553 138.92 10.6247 139.749 9.88836 140.383C9.39529 140.806 9.46071 140.532 9.11621 140.674C9.06752 140.695 8.7826 140.978 8.70867 140.933C8.522 140.821 8.49559 140.519 8.28043 140.416C8.23432 140.393 7.89266 140.812 8.03403 140.503C8.04415 140.482 8.29112 140.177 8.33065 140.081C8.3583 140.014 8.21318 140.039 8.28436 139.917C8.35555 139.795 8.51162 139.739 8.64161 139.549C8.77118 139.359 8.63258 139.361 8.94224 139.032ZM96.9386 52.1374C96.6297 52.3331 96.8037 52.5825 97.0249 52.2575C97.0354 52.2415 96.9543 52.1272 96.9386 52.1374ZM127.304 21.4222C126.883 21.6603 126.795 22.0246 127.099 21.8629C127.402 21.7012 127.433 21.3496 127.304 21.4222ZM130.643 17.9162C130.185 18.23 130.424 18.5915 130.775 18.1158C130.795 18.0882 130.669 17.8979 130.643 17.9162ZM10.212 139.51C10.2057 139.511 9.99983 139.713 9.99775 139.721C9.95659 139.897 10.3683 139.493 10.212 139.51ZM133.949 14.4306C133.788 14.5109 133.49 14.906 133.689 14.8063C133.85 14.726 134.148 14.3305 133.949 14.4306ZM83.6068 65.1395C83.5997 65.1403 83.4512 65.2845 83.4719 65.2994C83.5391 65.3469 83.7257 65.1261 83.6068 65.1395ZM139.69 8.62907C138.83 9.47436 138.068 9.74555 139.02 8.84067C139.193 8.67681 138.738 9.28392 138.974 9.09129C139.404 8.73862 139.508 8.32154 139.989 8.00355C140.076 7.94614 139.739 8.5814 139.689 8.63093C139.689 8.6303 139.689 8.62969 139.69 8.62907ZM96.5404 52.0289C96.5326 52.0311 96.3282 52.232 96.3262 52.2397C96.284 52.4172 96.6956 52.0126 96.5404 52.0289ZM74.9767 73.5871C74.9596 73.5924 74.4861 74.0591 74.4763 74.08C74.3417 74.4364 75.2994 73.4931 74.9767 73.5871ZM109.966 38.1674C110.119 37.8777 110.374 37.604 110.634 37.512C110.411 37.7282 110.19 37.9497 109.966 38.1674Z" fill="white"/>
<defs>
<filter id="filter0_f_49_121" x="0" y="0" width="148.003" height="148.938" filterUnits="userSpaceOnUse" color-interpolation-filters="sRGB">
<feFlood flood-opacity="0" result="BackgroundImageFix"/>
<feBlend mode="normal" in="SourceGraphic" in2="BackgroundImageFix" result="shape"/>
<feGaussianBlur stdDeviation="4" result="effect1_foregroundBlur_49_121"/>
</filter>
</defs>
</svg>
